HIERARCHY
ROOT Hips
{
	OFFSET 0.000000 0.000000 0.000000
	CHANNELS 6 Xposition Yposition Zposition Xrotation Yrotation Zrotation
	JOINT LeftUpLeg_virtual
	{
		OFFSET 0.000000 0.000000 0.000000
		CHANNELS 3 Xrotation Yrotation Zrotation
		JOINT LeftUpLeg
		{
			OFFSET 15.427100 -6.655098 0.678600
			CHANNELS 3 Xrotation Yrotation Zrotation
			JOINT LeftLeg
			{
				OFFSET 4.081073 -39.591068 13.024000
				CHANNELS 3 Xrotation Yrotation Zrotation
				JOINT LeftFoot
				{
					OFFSET -4.081074 -37.707932 -15.979700
					CHANNELS 3 Xrotation Yrotation Zrotation
					JOINT LeftToeBase
					{
						OFFSET 5.346399 -15.068900 20.645000
						CHANNELS 3 Xrotation Yrotation Zrotation
						JOINT LeftToe_End
						{
							OFFSET 2.754700 0.931300 11.300900
							CHANNELS 3 Xrotation Yrotation Zrotation
							End Site
							{
								OFFSET 0 0 0
							}
						}
					}
				}
			}
		}
	}
	JOINT RightUpLeg_virtual
	{
		OFFSET 0.000000 0.000000 0.000000
		CHANNELS 3 Xrotation Yrotation Zrotation
		JOINT RightUpLeg
		{
			OFFSET -15.569500 -6.655098 0.678600
			CHANNELS 3 Xrotation Yrotation Zrotation
			JOINT RightLeg
			{
				OFFSET -4.081825 -39.591045 13.023800
				CHANNELS 3 Xrotation Yrotation Zrotation
				JOINT RightFoot
				{
					OFFSET 4.081824 -37.707954 -15.979600
					CHANNELS 3 Xrotation Yrotation Zrotation
					JOINT RightToeBase
					{
						OFFSET -5.346400 -15.068900 20.645000
						CHANNELS 3 Xrotation Yrotation Zrotation
						JOINT RightToe_End
						{
							OFFSET -2.754700 0.931300 11.300900
							CHANNELS 3 Xrotation Yrotation Zrotation
							End Site
							{
								OFFSET 0 0 0
							}
						}
					}
				}
			}
		}
	}
	JOINT Spine_virtual
	{
		OFFSET 0.000000 0.000000 0.000000
		CHANNELS 3 Xrotation Yrotation Zrotation
		JOINT Spine
		{
			OFFSET -0.279200 12.230698 -2.892100
			CHANNELS 3 Xrotation Yrotation Zrotation
			JOINT Spine1
			{
				OFFSET -0.232667 10.192268 -1.242267
				CHANNELS 3 Xrotation Yrotation Zrotation
				JOINT Spine1_split
				{
					OFFSET -0.232667 10.192268 -1.242267
					CHANNELS 3 Xrotation Yrotation Zrotation
					JOINT Spine2
					{
						OFFSET -0.232667 10.192268 -1.242267
						CHANNELS 3 Xrotation Yrotation Zrotation
						JOINT Neck_virtual
						{
							OFFSET 0.000000 0.000000 0.000000
							CHANNELS 3 Xrotation Yrotation Zrotation
							JOINT Neck
							{
								OFFSET -0.418800 17.814194 8.416900
								CHANNELS 3 Xrotation Yrotation Zrotation
								JOINT Head
								{
									OFFSET 0.000000 7.031097 3.806800
									CHANNELS 3 Xrotation Yrotation Zrotation
									JOINT HeadTop_End
									{
										OFFSET 0.000000 24.646606 12.978600
										CHANNELS 3 Xrotation Yrotation Zrotation
										End Site
										{
											OFFSET 0 0 0
										}
									}
								}
							}
						}
						JOINT LeftShoulder_virtual
						{
							OFFSET 0.000000 0.000000 0.000000
							CHANNELS 3 Xrotation Yrotation Zrotation
							JOINT LeftShoulder
							{
								OFFSET 8.476499 7.247704 -3.868750
								CHANNELS 3 Xrotation Yrotation Zrotation
								JOINT LeftShoulder_split
								{
									OFFSET 8.476499 7.247704 -3.868750
									CHANNELS 3 Xrotation Yrotation Zrotation
									JOINT LeftArm
									{
										OFFSET 9.308998 -2.777710 0.208600
										CHANNELS 3 Xrotation Yrotation Zrotation
										JOINT LeftForeArm
										{
											OFFSET 29.972298 0.000000 0.000000
											CHANNELS 3 Xrotation Yrotation Zrotation
											JOINT LeftHand
											{
												OFFSET 26.026505 0.000000 0.000000
												CHANNELS 3 Xrotation Yrotation Zrotation
												End Site
												{
													OFFSET 0 0 0
												}
											}
										}
									}
								}
							}
						}
						JOINT RightShoulder_virtual
						{
							OFFSET 0.000000 0.000000 0.000000
							CHANNELS 3 Xrotation Yrotation Zrotation
							JOINT RightShoulder
							{
								OFFSET -7.570500 7.247704 -3.868750
								CHANNELS 3 Xrotation Yrotation Zrotation
								JOINT RightShoulder_split
								{
									OFFSET -7.570500 7.247704 -3.868750
									CHANNELS 3 Xrotation Yrotation Zrotation
									JOINT RightArm
									{
										OFFSET -9.308998 -2.777710 0.208500
										CHANNELS 3 Xrotation Yrotation Zrotation
										JOINT RightForeArm
										{
											OFFSET -29.972300 0.000000 0.000000
											CHANNELS 3 Xrotation Yrotation Zrotation
											JOINT RightHand
											{
												OFFSET -26.026505 0.000000 0.000000
												CHANNELS 3 Xrotation Yrotation Zrotation
												End Site
												{
													OFFSET 0 0 0
												}
											}
										}
									}
								}
							}
						}
					}
				}
			}
		}
	}
}
MOTION
Frames: 8
Frame Time: 0.03333333
1.629981 79.567482 25.066042 0.000000 0.000000 0.000000 6.117565 -48.385091 3.320200 0.038651 13.023172 -8.115058 42.580465 2.376409 -7.823183 -35.320483 -10.823257 18.059063 -3.962159 -10.200800 -4.762502 0.000000 0.000000 0.000000 5.726263 -47.836316 2.879176 -57.301394 -4.256736 5.637588 26.129457 3.666111 -3.683774 16.488261 5.640641 10.782744 3.615688 -2.554481 0.660376 0.000000 0.000000 0.000000 5.110096 -44.345212 2.879106 15.288335 -7.065059 2.903866 5.654961 -5.841019 2.421494 -0.465866 -2.434565 1.045167 0.000000 0.000000 0.000000 -2.935461 -5.159875 1.384502 2.275272 39.222655 -10.646708 0.104345 27.100053 -6.906689 0.000000 0.000000 0.000000 -1.927727 -6.479259 1.784755 1.050304 -3.245313 -3.194400 -1.629136 2.899385 -2.502861 -0.807730 -2.825924 -27.958309 -0.813822 -26.595450 -1.790102 0.000000 0.000000 0.000000 -3.620519 -6.063100 2.642866 9.758663 -12.560697 3.326821 0.835583 2.962233 -1.142405 2.136653 5.554349 77.759696 -6.457884 11.373210 6.051418 0.000000 0.000000 0.000000 
3.287715 80.075897 23.220381 0.000000 0.000000 0.000000 7.010905 -52.745456 4.284174 -0.882911 12.655642 -10.009860 40.864892 2.456851 -7.405193 -36.024173 -12.414835 18.256384 -2.403513 -10.894483 -2.994033 0.000000 0.000000 0.000000 5.603046 -50.818650 3.414215 -54.421609 -4.373117 4.785669 27.823498 3.425740 -4.048809 15.757788 5.729077 10.334662 6.246295 -1.872490 1.144529 0.000000 0.000000 0.000000 5.409752 -47.702697 3.352600 15.324947 -6.651138 2.141320 4.838911 -5.336798 2.411300 -0.355651 -2.282455 0.845480 0.000000 0.000000 0.000000 -3.929535 -4.533736 1.412752 2.875055 39.622600 -11.054623 0.853332 27.025949 -7.659224 0.000000 0.000000 0.000000 -2.749342 -5.887257 1.943830 0.879345 -2.184778 -3.040346 -0.196125 4.136607 -2.844355 -5.788088 -4.312932 -28.523229 -0.282113 -31.250793 -1.871850 0.000000 0.000000 0.000000 -4.526520 -5.571165 2.646349 10.250680 -11.594568 3.396419 -0.018270 3.687900 -1.790121 3.859721 11.104742 74.375016 -4.975127 15.016615 7.537562 0.000000 0.000000 0.000000 
4.602555 80.372643 21.336769 0.000000 0.000000 0.000000 8.482345 -56.813718 5.949908 -2.621115 12.794609 -10.960958 40.904866 3.264968 -7.006309 -36.411011 -12.897486 17.555861 -1.189897 -11.674607 -1.933104 0.000000 0.000000 0.000000 5.658224 -54.025068 4.287561 -51.794311 -3.882846 3.912594 30.223563 3.537401 -4.391456 16.254655 5.903702 10.358257 7.303105 -1.339094 1.657132 0.000000 0.000000 0.000000 5.511981 -50.903545 3.890115 15.614837 -6.099744 1.743734 4.151689 -4.697071 2.355065 -0.042889 -2.153333 0.904375 0.000000 0.000000 0.000000 -4.797867 -3.872408 1.425320 4.144162 39.824135 -11.883863 1.163732 26.648372 -8.222237 0.000000 0.000000 0.000000 -3.337959 -5.181688 1.987814 0.806941 -1.273136 -3.226640 1.372187 4.749726 -2.645325 -9.155595 -5.557096 -29.247184 -0.379085 -34.966457 -2.184472 0.000000 0.000000 0.000000 -5.141396 -4.923737 2.551617 10.594897 -10.327151 4.022679 -0.890220 3.887706 -2.284249 5.967609 14.622446 70.312296 -3.030640 19.676793 8.760941 0.000000 0.000000 0.000000 
5.515401 80.830902 19.286098 0.000000 0.000000 0.000000 9.828698 -60.430836 7.796767 -4.626694 12.903840 -11.504915 41.227182 4.657503 -6.312943 -36.570834 -11.777054 15.836099 2.072299 -12.394789 -1.246178 0.000000 0.000000 0.000000 5.557970 -57.416073 5.097884 -49.289896 -3.120386 2.885121 32.429728 3.716918 -4.752175 17.068829 6.060887 10.541803 7.046922 -0.944454 2.249678 0.000000 0.000000 0.000000 4.998820 -53.822427 4.144364 16.027032 -5.401714 1.660251 3.560827 -3.929997 2.172583 0.046501 -2.491314 0.970406 0.000000 0.000000 0.000000 -5.452273 -3.173625 1.360958 5.943363 39.877865 -12.919877 1.240060 26.078555 -8.691741 0.000000 0.000000 0.000000 -3.723286 -4.395563 1.847398 0.793424 -0.549710 -3.828000 2.733106 4.657328 -2.109606 -10.921634 -6.802433 -29.891876 -1.221500 -38.358059 -2.791482 0.000000 0.000000 0.000000 -5.463609 -4.166685 2.295274 10.714537 -8.878235 5.077362 -1.513834 3.552506 -2.916404 7.458549 15.841121 65.890289 -0.859276 24.503690 9.480469 0.000000 0.000000 0.000000 
6.125946 81.555702 17.039854 0.000000 0.000000 0.000000 10.633774 -63.483624 9.234028 -5.939770 12.575072 -12.025530 39.983791 6.275274 -5.183957 -36.878452 -9.874901 13.531161 3.476272 -13.192819 0.649486 0.000000 0.000000 0.000000 5.477422 -60.468587 5.707239 -46.947807 -2.254117 1.574535 34.005927 3.723014 -5.178886 17.267172 6.104509 10.562348 6.423045 -0.636202 2.759236 0.000000 0.000000 0.000000 4.104385 -56.351325 3.992855 16.394242 -4.624574 1.781636 3.070859 -3.119552 1.824418 0.011902 -3.008769 1.001497 0.000000 0.000000 0.000000 -5.748592 -2.457935 1.203021 8.065459 39.767325 -13.932508 1.265707 25.480572 -9.174626 0.000000 0.000000 0.000000 -3.946262 -3.588557 1.537167 0.827441 0.041206 -4.783055 3.651990 4.024651 -1.376532 -11.160874 -7.857894 -30.324390 -2.743679 -42.480249 -3.748710 0.000000 0.000000 0.000000 -5.589181 -3.370782 1.893465 10.613778 -7.409321 6.363403 -1.780333 2.688107 -3.472316 7.711229 15.390414 61.893385 1.373659 29.104795 9.594853 0.000000 0.000000 0.000000 
6.611522 82.492714 14.613846 0.000000 0.000000 0.000000 10.928047 -65.740359 9.998316 -6.046726 11.920600 -12.449125 36.897683 8.199134 -3.753149 -37.310578 -8.354614 12.378996 1.919538 -14.366768 3.988815 0.000000 0.000000 0.000000 5.412826 -62.835637 6.004366 -44.828540 -1.263553 -0.173689 35.142863 3.655589 -5.594903 16.677444 6.170500 10.508973 6.161821 -0.326651 3.040234 0.000000 0.000000 0.000000 2.926740 -58.452192 3.421109 16.488413 -3.824920 1.960666 2.703591 -2.327258 1.358934 -0.306816 -3.976006 0.951096 0.000000 0.000000 0.000000 -5.732081 -1.784526 0.996979 10.215750 39.532312 -14.695301 1.311526 25.143991 -9.740591 0.000000 0.000000 0.000000 -4.083418 -2.810006 1.140372 0.898615 0.673711 -5.749696 4.284726 3.462567 -0.666987 -10.657401 -8.529037 -30.742873 -4.569307 -47.213741 -4.957753 0.000000 0.000000 0.000000 -5.587233 -2.622271 1.434000 10.332726 -6.077825 7.664262 -1.692692 1.673329 -3.740240 6.804518 14.323354 58.831063 3.481000 33.307281 9.166034 0.000000 0.000000 0.000000 
7.032930 83.552223 12.038212 0.000000 0.000000 0.000000 10.797239 -67.272022 10.039782 -6.598851 10.962561 -12.301147 34.541971 9.656515 -2.363639 -35.731073 -7.373299 11.525941 2.303792 -15.633451 6.213567 0.000000 0.000000 0.000000 5.459773 -64.507981 6.076192 -42.688184 -0.158308 -2.333619 35.991142 3.723026 -6.039677 15.226723 6.544629 10.851385 6.090334 -0.001756 3.023837 0.000000 0.000000 0.000000 1.977864 -60.055490 2.769167 16.286286 -3.070732 2.054791 2.551373 -1.623291 0.869459 -0.685934 -4.998026 0.694919 0.000000 0.000000 0.000000 -5.502780 -1.202686 0.813084 12.052560 39.198848 -15.007036 1.399277 25.361648 -10.402737 0.000000 0.000000 0.000000 -4.174331 -2.136088 0.734600 1.007666 1.401299 -6.421272 4.450651 3.279589 -0.445970 -9.896845 -8.531663 -31.412542 -6.183257 -51.920943 -6.174508 0.000000 0.000000 0.000000 -5.554805 -2.008097 1.040608 9.958133 -5.002235 8.713677 -1.167132 0.679523 -3.589404 5.232135 13.637498 56.844693 5.254398 36.891986 8.346556 0.000000 0.000000 0.000000 
7.613477 84.467674 9.548740 0.000000 0.000000 0.000000 10.777987 -68.296004 9.918585 -7.841921 9.523527 -11.473530 33.786876 10.420244 -1.394470 -31.902721 -7.015423 10.779859 4.055874 -16.884917 7.706124 0.000000 0.000000 0.000000 5.825758 -65.435569 6.255986 -40.287475 1.043202 -4.586198 36.700095 4.018378 -6.581140 13.296797 7.061447 11.741213 5.682225 0.326242 2.820978 0.000000 0.000000 0.000000 1.941482 -61.156114 2.589075 15.876288 -2.407085 2.024633 2.644742 -1.048750 0.431572 -0.723253 -5.654421 0.447898 0.000000 0.000000 0.000000 -5.163693 -0.748021 0.684625 13.396891 38.694067 -14.847269 1.574693 26.063654 -11.045683 0.000000 0.000000 0.000000 -4.254679 -1.574734 0.388941 1.152715 2.366035 -6.693785 4.407545 3.235315 -0.437828 -8.757808 -7.835092 -32.565908 -7.126343 -55.712248 -7.019243 0.000000 0.000000 0.000000 -5.508809 -1.517479 0.781422 9.562384 -4.160443 9.286055 -0.451314 -0.169180 -3.443907 3.607371 13.579021 55.933850 6.643311 39.752773 7.206432 0.000000 0.000000 0.000000 
